<svg width="920" height="920" viewBox="0 0 920 920" fill="none" xmlns="http://www.w3.org/2000/svg">
<path d="M417.203 137.754L154.723 400.13C151.124 403.721 148.248 408.006 146.259 412.74C144.271 417.475 143.209 422.565 143.135 427.72C143.06 432.875 143.975 437.994 145.826 442.784C147.677 447.574 150.428 451.94 153.921 455.633L206.83 511.662L275.962 442.562C273.355 434.257 273.067 425.363 275.131 416.893C277.195 408.423 281.529 400.718 287.638 394.654C293.747 388.589 301.387 384.41 309.688 382.591C317.989 380.772 326.618 381.386 334.592 384.364L364.278 408.218L360.899 446.587C358.537 452.248 355.11 457.373 350.817 461.669C346.524 465.965 341.449 469.346 335.883 471.618C330.318 473.89 324.371 475.008 318.386 474.909C312.4 474.809 306.494 473.494 301.007 471.038L232.841 539.171L407.542 724.247C411.03 727.949 415.194 730.906 419.795 732.95C424.397 734.993 429.346 736.082 434.359 736.154C439.372 736.227 444.35 735.281 449.009 733.371C453.668 731.462 457.915 728.626 461.508 725.026L724.007 462.632C727.608 459.041 730.486 454.755 732.476 450.019C734.466 445.283 735.529 440.191 735.603 435.033C735.678 429.876 734.762 424.755 732.91 419.963C731.058 415.172 728.304 410.805 724.808 407.111L471.187 138.533C467.699 134.828 463.534 131.869 458.931 129.824C454.328 127.779 449.377 126.689 444.362 126.616C439.347 126.544 434.366 127.491 429.706 129.402C425.045 131.313 420.797 134.151 417.203 137.754Z" fill="white"/>
<path d="M794.857 429.005L490.508 125.124C482.091 116.721 470.676 112 458.775 112C446.873 112 435.458 116.721 427.041 125.124L363.798 188.282L443.95 268.325C453.4 265.121 463.561 264.631 473.277 266.91C482.992 269.19 491.872 274.146 498.905 281.217C505.939 288.288 510.844 297.188 513.062 306.905C515.28 316.622 514.723 326.766 511.453 336.182L588.702 413.327C600.24 409.355 612.793 409.452 624.268 413.602C635.743 417.753 645.447 425.705 651.762 436.135C658.077 446.564 660.622 458.84 658.972 470.916C657.322 482.992 651.577 494.139 642.695 502.497C633.813 510.856 622.331 515.922 610.162 516.85C597.993 517.779 585.872 514.514 575.822 507.6C565.771 500.686 558.397 490.54 554.93 478.855C551.462 467.169 552.109 454.65 556.764 443.383L484.723 371.42V560.764C489.941 563.347 494.708 566.753 498.841 570.85C506.942 578.944 512.22 589.427 513.895 600.748C515.57 612.069 513.552 623.628 508.141 633.715C502.729 643.803 494.211 651.883 483.845 656.763C473.48 661.642 461.817 663.061 450.581 660.81C439.346 658.559 429.134 652.757 421.456 644.262C413.777 635.767 409.039 625.03 407.943 613.639C406.847 602.247 409.451 590.806 415.369 581.006C421.287 571.206 430.205 563.569 440.806 559.222V368.077C434.291 365.399 428.37 361.462 423.383 356.493C418.397 351.523 414.442 345.618 411.748 339.117C409.053 332.617 407.671 325.649 407.681 318.613C407.691 311.577 409.094 304.613 411.807 298.12L332.809 219.229L124.143 427.519C115.728 435.928 111 447.33 111 459.219C111 471.108 115.728 482.51 124.143 490.919L428.418 794.875C436.838 803.279 448.256 808 460.16 808C472.065 808 483.483 803.279 491.903 794.875L794.857 492.405C803.273 483.996 808 472.594 808 460.705C808 448.816 803.273 437.414 794.857 429.005V429.005Z" fill="#F76A43"/>
</svg>