<svg width="920" height="920" viewBox="0 0 920 920" fill="none" xmlns="http://www.w3.org/2000/svg">
<path d="M799 123H121V801H799V123Z" fill="#F6DE00"/>
<path d="M576.039 652.822C589.702 675.108 607.48 691.491 638.911 691.491C665.319 691.491 682.191 678.262 682.191 660.098C682.191 638.27 664.871 630.536 635.793 617.836L619.859 611.007C573.869 591.439 543.315 566.924 543.315 515.096C543.315 467.35 579.727 431 636.649 431C677.168 431 706.307 445.094 727.325 481.973L677.667 513.794C666.735 494.225 654.947 486.511 636.649 486.511C617.984 486.511 606.156 498.336 606.156 513.794C606.156 532.884 617.995 540.618 645.34 552.464L661.274 559.282C715.425 582.483 746 606.092 746 659.284C746 716.596 700.917 748 640.388 748C581.195 748 542.958 719.822 524.242 682.872L576.039 652.822ZM350.879 658.337C360.894 676.085 370.002 691.084 391.897 691.084C412.833 691.084 426.048 682.943 426.048 651.082V434.633H489.775V651.946C489.775 717.858 451.06 747.858 394.607 747.858C343.584 747.858 314.028 721.481 299 689.71L350.879 658.337Z" fill="black"/>
</svg>