<svg width="920" height="920" viewBox="0 0 920 920" fill="none" xmlns="http://www.w3.org/2000/svg">
<path d="M710.436 594.657C634.989 695.145 473.825 661.226 370.497 666.104C370.497 666.104 352.205 667.122 333.781 670.153C333.781 670.153 340.748 667.182 349.633 664.121C422.204 639.033 456.5 633.992 500.597 611.349C583.451 568.922 665.909 476.506 682.687 380.503C651.15 472.837 555.235 552.306 467.901 584.576C408.124 606.626 300.022 628.086 300.007 628.095C300.057 628.172 295.699 625.833 295.638 625.782C222.12 590.027 219.999 430.855 353.521 379.547C412.063 357.035 468.059 369.399 531.344 354.342C598.842 338.299 677.016 287.723 708.791 221.6C744.413 327.22 787.204 492.464 710.436 594.657ZM711.748 188.871C702.766 210.202 691.805 229.424 679.168 246.617C623.548 189.554 545.915 154 460.105 154C291.309 154 154 291.277 154 459.983C154 548.424 191.764 628.187 251.971 684.097L258.674 690.033C247.48 680.908 245.759 664.475 254.832 653.275C263.96 642.069 280.414 640.333 291.613 649.408C302.843 658.503 304.553 674.977 295.461 686.197C286.403 697.422 269.919 699.118 258.705 690.059L263.266 694.097C316.523 738.923 385.174 766 460.105 766C621.447 766 753.931 640.485 765.272 482.064C773.671 404.497 750.752 306.004 711.748 188.871Z" fill="#5FB832"/>
</svg>